<?xml version="1.0" standalone="no"?>
<!DOCTYPE svg PUBLIC "-//W3C//DTD SVG 20010904//EN"
 "http://www.w3.org/TR/2001/REC-SVG-20010904/DTD/svg10.dtd">
<svg version="1.0" xmlns="http://www.w3.org/2000/svg"
 width="200.000000pt" height="200.000000pt" viewBox="0 0 200.000000 200.000000"
 preserveAspectRatio="xMidYMid meet">
<metadata>
Created by potrace 1.11, written by Peter Selinger 2001-2013
</metadata>
<g transform="translate(0.000000,200.000000) scale(0.100000,-0.100000)"
fill="#000000" stroke="none">
<path d="M0 1000 l0 -1000 1000 0 1000 0 0 1000 0 1000 -1000 0 -1000 0 0
-1000z m1074 704 c9 -25 8 -31 -20 -63 -23 -28 -24 -32 -10 -47 22 -22 20 -38
-10 -73 -20 -24 -22 -31 -10 -31 27 0 39 -36 21 -70 -14 -27 -14 -30 0 -30 24
0 36 -41 19 -67 -11 -18 -11 -22 1 -27 18 -7 20 -47 3 -65 -11 -10 -10 -14 5
-22 9 -6 17 -16 17 -23 0 -8 8 -13 17 -12 10 0 22 -9 28 -21 5 -13 16 -23 23
-23 7 0 15 -6 18 -14 3 -8 14 -16 25 -19 16 -4 22 4 35 50 24 82 15 325 -15
407 -24 68 -24 66 -11 66 14 0 49 -72 56 -118 6 -39 7 -40 40 -35 28 5 35 2
45 -19 8 -19 17 -24 34 -20 16 3 28 -2 36 -16 10 -16 17 -18 35 -10 17 8 27 8
37 0 11 -9 18 -7 32 8 10 11 26 20 36 20 16 0 17 7 12 71 -5 59 -4 71 8 67 33
-11 37 -143 8 -259 -26 -101 -66 -185 -116 -240 -32 -36 -38 -50 -44 -108 -8
-77 1 -95 42 -86 21 5 31 2 40 -14 13 -19 13 -19 37 0 29 23 55 24 72 5 9 -11
17 -12 34 -4 25 11 66 -3 66 -23 0 -6 12 -1 26 10 30 23 54 27 71 10 9 -9 19
-6 39 10 54 42 106 14 83 -46 -15 -40 -83 -108 -164 -162 -125 -84 -239 -121
-375 -121 -110 0 -190 15 -264 49 -56 27 -60 27 -100 13 -53 -18 -156 -11
-193 14 -16 10 -47 24 -71 30 -42 11 -42 11 -28 -10 33 -46 116 -192 116 -203
0 -28 -18 -10 -55 55 -21 37 -63 103 -92 148 -46 69 -60 83 -94 93 -39 12 -48
28 -28 48 13 13 -98 115 -203 186 -70 47 -92 67 -70 67 20 0 117 -66 205 -140
l99 -82 62 61 c35 33 75 63 90 67 26 6 34 18 17 28 -23 14 -45 134 -45 241 1
196 47 307 180 435 65 63 90 80 113 80 17 0 31 -6 35 -16z m-728 -567 c26 -24
37 -43 41 -75 8 -59 -10 -54 -40 12 -14 30 -35 61 -46 68 -12 7 -21 16 -21 20
0 18 33 6 66 -25z m103 -3 c42 -53 54 -145 20 -152 -13 -2 -19 10 -28 59 -6
34 -17 72 -26 85 -19 29 -19 34 -1 34 8 0 24 -12 35 -26z m-229 -26 c34 -24
68 -73 58 -83 -11 -12 -168 80 -168 98 0 17 79 6 110 -15z m337 -117 c5 -38
-7 -71 -27 -71 -9 0 -20 120 -12 133 9 17 34 -21 39 -62z m-455 -16 c34 -29
41 -29 123 -12 61 13 128 8 146 -10 14 -14 -105 -43 -180 -43 -49 0 -65 4 -89
25 -26 22 -49 65 -35 65 3 0 18 -11 35 -25z m38 -120 c17 -18 34 -25 60 -25
21 0 72 11 114 25 76 25 160 33 170 16 5 -8 -122 -57 -211 -81 -57 -15 -114 1
-147 41 -42 49 -30 70 14 24z m388 -47 c-7 -20 -117 -73 -129 -61 -8 8 5 20
43 41 56 31 92 40 86 20z"/>
<path d="M972 1650 c-77 -64 -99 -97 -80 -116 12 -12 25 -3 92 65 68 71 85
101 56 101 -4 0 -35 -22 -68 -50z"/>
<path d="M956 1541 c-34 -35 -37 -41 -25 -62 12 -23 12 -23 55 26 24 28 44 56
44 63 0 24 -37 11 -74 -27z"/>
<path d="M825 1477 c-85 -185 -67 -476 34 -544 19 -13 38 -23 43 -23 5 0 16
17 24 37 20 47 6 103 -31 127 l-26 17 21 26 c34 43 24 128 -18 159 -13 10 -13
15 5 40 37 52 45 102 24 148 -10 23 -25 47 -34 55 -15 12 -20 8 -42 -42z"/>
<path d="M967 1447 c-8 -13 -21 -44 -27 -68 -7 -24 -21 -54 -33 -66 -11 -13
-16 -23 -11 -23 15 1 129 140 129 159 0 26 -40 25 -58 -2z"/>
<path d="M1295 1439 c-4 -6 -9 -66 -10 -133 -2 -78 -8 -139 -19 -171 -19 -60
-19 -55 -2 -55 15 0 27 26 51 111 28 101 12 301 -20 248z"/>
<path d="M1373 1398 c-6 -7 -13 -54 -16 -104 -3 -49 -14 -116 -25 -147 -15
-46 -16 -57 -5 -57 31 0 87 189 81 271 -3 44 -18 59 -35 37z"/>
<path d="M1542 1383 c-5 -10 -17 -51 -26 -91 -25 -112 -90 -243 -113 -229 -6
4 6 39 29 84 49 101 72 194 53 220 -23 31 -45 -4 -56 -86 -4 -39 -20 -100 -34
-134 -14 -35 -25 -69 -25 -75 0 -7 -14 -12 -32 -12 -102 0 -294 -74 -375 -145
-32 -27 -34 -32 -24 -58 6 -16 11 -39 11 -52 0 -22 4 -23 53 -22 64 1 111 -22
138 -67 19 -33 20 -33 63 -23 55 12 86 5 123 -30 26 -25 32 -27 54 -16 52 27
130 8 163 -38 l15 -22 61 23 c112 42 251 145 286 213 13 24 13 28 -2 34 -11 4
-37 -17 -91 -76 -41 -44 -82 -81 -91 -81 -11 0 -1 16 30 48 50 51 64 84 37 90
-10 2 -44 -24 -83 -62 -37 -37 -74 -66 -83 -66 -12 0 -4 13 26 44 42 42 51 74
24 83 -7 3 -41 -22 -76 -55 -63 -59 -107 -90 -107 -75 0 4 25 30 55 59 54 52
69 84 40 84 -9 0 -47 -29 -85 -65 -63 -59 -90 -77 -90 -58 0 3 18 21 40 40 26
23 40 43 40 59 0 13 -4 24 -10 24 -5 0 -41 -31 -80 -70 -39 -39 -78 -70 -88
-70 -11 0 2 18 41 54 43 40 57 60 57 81 0 27 -2 27 -63 -32 -61 -59 -127 -103
-127 -84 0 5 20 24 44 42 57 40 110 105 102 125 -5 12 -16 6 -49 -28 -41 -42
-132 -108 -149 -108 -20 0 -5 19 35 45 23 15 66 52 94 82 44 45 57 52 78 47
24 -6 25 -4 25 36 0 47 9 68 55 125 56 69 115 211 115 278 0 31 -15 36 -28 10z"/>
<path d="M967 1328 c-45 -57 -48 -63 -41 -83 6 -13 18 -6 65 41 64 63 72 84
35 84 -17 0 -35 -13 -59 -42z"/>
<path d="M975 1234 c-19 -26 -35 -55 -35 -66 0 -10 -7 -32 -15 -48 -23 -44 -2
-37 23 8 11 20 42 59 67 85 51 55 55 67 20 67 -17 0 -34 -13 -60 -46z"/>
<path d="M1012 1177 c-40 -45 -74 -109 -63 -120 6 -6 12 -9 14 -6 1 2 24 29
50 61 26 31 47 61 47 66 0 20 -29 20 -48 -1z"/>
<path d="M1043 1107 c-52 -56 -69 -84 -76 -124 -9 -45 17 -33 45 21 11 22 38
61 59 85 22 24 39 48 39 52 0 21 -31 6 -67 -34z"/>
<path d="M1098 1083 c-31 -34 -63 -83 -54 -83 28 0 116 79 116 104 0 16 -40 3
-62 -21z"/>
<path d="M1166 1061 c-4 -5 3 -7 14 -4 23 6 26 13 6 13 -8 0 -17 -4 -20 -9z"/>
<path d="M770 913 c-8 -3 -28 -15 -44 -26 l-28 -20 37 -13 c21 -7 52 -26 69
-43 34 -33 82 -55 103 -47 7 3 13 18 13 33 0 72 -87 139 -150 116z"/>
<path d="M690 793 c0 -47 31 -100 68 -114 15 -6 44 -9 64 -6 42 6 53 0 37 -19
-9 -11 -7 -16 7 -21 24 -10 160 -10 169 -1 4 4 -17 29 -46 57 -44 40 -59 48
-80 44 -30 -6 -75 15 -104 47 -25 27 -67 50 -95 50 -17 0 -20 -6 -20 -37z m79
-7 c13 -16 5 -46 -13 -46 -23 0 -36 22 -25 42 12 22 22 23 38 4z"/>
<path d="M636 781 c-17 -19 -17 -21 -2 -27 22 -8 28 -1 24 26 l-3 22 -19 -21z"/>
<path d="M973 754 c-21 -9 88 -96 162 -130 38 -18 97 -37 129 -43 73 -13 243
-15 251 -2 9 16 -46 51 -79 51 -17 -1 -42 -7 -56 -15 -34 -20 -48 -18 -55 5
-14 44 -82 58 -162 35 -18 -6 -25 0 -41 32 -28 53 -101 86 -149 67z"/>
</g>
</svg>
