<svg id="lvlzus" xmlns="http://www.w3.org/2000/svg" viewBox="0 0 309.75 277.21">
    <title>LVLZ.US</title>
    <path d="M631.55,447.09c2.91,1.71,3,3.4,1.56,6-8.32,14.66-16.28,29.54-24.72,44.13a126.78,126.78,0,0,1-11.23,15.87,24.43,24.43,0,0,1-20.72,9.39c-5.1-.17-10.28-.12-15.27-1-7.91-1.47-13.66-6.26-17.75-13.21-22.35-38,9.38-82.51,47.65-81,8.63.34,17.26.29,25.88,0a37.33,37.33,0,0,1,19.71,4.88c12.83,7,23.07,16.95,32.78,27.64,10.83,11.92,21.38,24.15,32.92,35.36,12.75,12.37,28.28,20.35,45.57,24.84a25.88,25.88,0,0,0,14.72-.38c16-5,27.67-15.62,37.21-28.88,10.25-14.25,16.91-30.22,22-46.91.49-1.59.22-4.48,4.06-3.33-8.28,26.29-19.34,50.78-40.58,69.6a23.46,23.46,0,0,0,2.28-1.19c11.89-7.92,21.45-18.11,27.71-30.91,5.58-11.41,10.27-23.26,15.17-35,.83-2,1.53-3.08,3.89-3,3.57.21,7.16.06,11.35.06-2.2,5.87-4.12,11.24-6.19,16.54-4.79,12.24-10.3,24.1-17.9,34.92C808,511,788.59,520.43,765.44,522.15c-15.94,1.19-32,1.11-47.65-3.22-21.57-5.95-38.47-18.5-52-36-8.71-11.26-17.43-22.53-26.59-33.43-4.06-4.83-9.06-8.93-13.91-13-11.68-9.88-24.51-10-37.87-3.89-26.53,12.07-38.13,42.67-26.31,70.45,2.13,5,6.09,9.28,9.39,13.75,1.31,1.79,3,1.52,4.25-.35,2.1-3.1,4.43-6.07,6.23-9.33q18.27-33.13,36.35-66.37c.66-1.2,1.37-2.37,2.38-4.11l9.53,7.28L614.1,471.49c-5,9.09-10,18.15-14.94,27.27-4.1,7.61-8.38,15.07-15.36,20.57l.6.75c2-1.41,4.41-2.47,5.88-4.3,4.36-5.43,8.89-10.84,12.36-16.84,9.26-16,18-32.27,27-48.44C630.19,449.42,630.82,448.35,631.55,447.09Zm-61.33,73.33c-15.36-13.62-20.56-30.65-16.47-49.84s16.52-32.48,34.66-40.37a5.51,5.51,0,0,0-2.21.17C552,440.47,537.49,484,559,512.27c2.19,2.89,5.53,4.92,8.45,7.23A8.77,8.77,0,0,0,570.22,520.42Zm141.15-6c-4.41-2.81-9-5.42-13.19-8.47-12.19-8.76-21.54-20.32-31.07-31.73-8.07-9.66-16.63-18.9-25-28.29a17.31,17.31,0,0,0-2.89-2.14c4.45,6.56,9.33,12.5,14.21,18.43,9.2,11.16,18,22.66,27.72,33.37C689.25,504.6,699.86,510.3,711.37,514.46Z" transform="translate(-536.01 -245.6)">
        <animate attributeName="fill" values="#983E49;#F3958F;#78B3A7;#E880B5;#F8D6D5;#FCDB2D;#E01868;#5C806F;#8F1E43;#9B272E;#28B0DC;#0F2D55" dur="20s" repeatCount="indefinite" />
    </path>
    <path d="M725.61,246.2a30.34,30.34,0,0,1-.77,3c-7,19.63-6.05,39.13.3,58.77C729,319.84,733,331.81,735,344c4.47,27.54-6.67,48.93-28.68,65.13a81,81,0,0,1-10.6,6.27c15.45-11.78,28.46-25.38,30.73-45.65,2.25-20-5.55-37-18.37-52.76L644.2,432.84l-3.68-2.3c21.46-38.93,42.77-77.61,64.38-116.82L702,311.33c-21.57,39.3-43,78.28-64.39,117.32L626,424.76,724.27,245.6Z" transform="translate(-536.01 -245.6)">
        <animate attributeName="fill" values="#983E49;#F3958F;#78B3A7;#E880B5;#F8D6D5;#FCDB2D;#E01868;#5C806F;#8F1E43;#9B272E;#28B0DC;#0F2D55" dur="20s" repeatCount="indefinite" />
    </path>
</svg>